<svg width="88" height="88" viewBox="0 0 88 88" fill="none" xmlns="http://www.w3.org/2000/svg">
<g id="Group 427320988">
<g id="Group 427320987">
<path id="Vector" fill-rule="evenodd" clip-rule="evenodd" d="M44.0026 80.6654C64.2531 80.6654 80.6693 64.2491 80.6693 43.9987C80.6693 23.7482 64.2531 7.33203 44.0026 7.33203C23.7522 7.33203 7.33594 23.7482 7.33594 43.9987C7.33594 64.2491 23.7522 80.6654 44.0026 80.6654Z" stroke="#666666" stroke-width="1.66667" stroke-linecap="round" stroke-linejoin="round"/>
<path id="Vector_2" d="M44.0026 42.1654C49.0652 42.1654 53.1693 38.0613 53.1693 32.9987C53.1693 27.9361 49.0652 23.832 44.0026 23.832C38.94 23.832 34.8359 27.9361 34.8359 32.9987C34.8359 38.0613 38.94 42.1654 44.0026 42.1654Z" fill="#666666" stroke="#666666" stroke-width="1.66667" stroke-linejoin="round"/>
<path id="Vector_3" d="M18.375 70.2766C19.0051 60.7224 26.9543 53.168 36.668 53.168H51.3347C61.0356 53.168 68.9766 60.7024 69.6253 70.2387" stroke="#666666" stroke-width="1.66667" stroke-linecap="round" stroke-linejoin="round"/>
<path id="Vector 86" d="M28.6724 78.115L45.0302 81.3865C45.0771 81.3959 45.1255 81.3939 45.1715 81.3808L60.4457 77.0168C60.4826 77.0062 60.5171 76.9887 60.5474 76.9651L70.2127 69.4477C70.3232 69.3617 70.3596 69.2108 70.3004 69.084L66.5794 61.1104C66.5611 61.0711 66.5344 61.0363 66.5013 61.0083L59.4606 55.0508C59.4219 55.018 59.3755 54.9956 59.3257 54.9856L48.4366 52.8078C48.4133 52.8031 48.3896 52.8013 48.3658 52.8022L34.7059 53.3486C34.67 53.35 34.6346 53.3579 34.6015 53.3719L24.2942 57.7118C24.2341 57.7371 24.1839 57.7813 24.1511 57.8377L17.6302 69.0763C17.5555 69.2052 17.5866 69.3694 17.7034 69.462L28.5449 78.0559C28.5821 78.0854 28.6259 78.1056 28.6724 78.115Z" fill="#666666"/>
</g>
</g>
</svg>
